<?xml version="1.0" encoding="UTF-8" standalone="no"?>
<svg
   version="1.0"
   width="480.96866pt"
   height="545.76831pt"
   viewBox="0 0 480.96865 545.76831"
   preserveAspectRatio="xMidYMid"
   id="svg14"
   sodipodi:docname="digitutor-icon-accent.svg"
   inkscape:version="1.4 (86a8ad7, 2024-10-11)"
   xmlns:inkscape="http://www.inkscape.org/namespaces/inkscape"
   xmlns:sodipodi="http://sodipodi.sourceforge.net/DTD/sodipodi-0.dtd"
   xmlns="http://www.w3.org/2000/svg"
   xmlns:svg="http://www.w3.org/2000/svg">
  <defs
     id="defs14" />
  <sodipodi:namedview
     id="namedview14"
     pagecolor="#505050"
     bordercolor="#eeeeee"
     borderopacity="1"
     inkscape:showpageshadow="0"
     inkscape:pageopacity="0"
     inkscape:pagecheckerboard="0"
     inkscape:deskcolor="#505050"
     inkscape:document-units="pt"
     inkscape:zoom="0.14954112"
     inkscape:cx="1106.719"
     inkscape:cy="190.58303"
     inkscape:window-width="2560"
     inkscape:window-height="1377"
     inkscape:window-x="2552"
     inkscape:window-y="-8"
     inkscape:window-maximized="1"
     inkscape:current-layer="g14"
     showgrid="false" />
  <g
     transform="matrix(0.1,0,0,-0.1,-761,2402.9405)"
     fill="#000000"
     stroke="none"
     id="g14">
    <path
       d="m 10161,24021 c 9,-6 49,-22 90,-37 116,-41 316,-147 461,-243 251,-167 453,-363 664,-644 126,-169 193,-275 277,-443 156,-311 212,-466 311,-860 89,-355 109,-449 135,-652 34,-249 62,-839 50,-1022 -5,-63 -15,-252 -24,-420 -9,-168 -25,-362 -35,-432 -22,-140 -26,-218 -10,-202 11,11 187,721 219,884 28,142 36,199 66,455 14,121 32,274 40,340 17,144 20,631 5,786 -40,388 -91,672 -159,879 -111,334 -224,549 -418,790 -308,384 -744,646 -1268,764 -228,51 -443,81 -404,57 z"
       id="path2"
       style="fill:#735bdc;fill-opacity:1" />
    <path
       d="m 9211,23705 c -40,-8 -79,-19 -85,-25 -12,-12 -17,-3543 -4,-3555 4,-4 51,0 105,8 123,20 560,29 774,17 283,-16 626,-79 849,-155 333,-115 620,-293 791,-494 35,-40 65,-68 67,-62 7,20 -63,152 -129,246 -104,146 -241,276 -414,392 -280,188 -492,283 -809,364 -231,58 -383,85 -531,94 -105,6 -227,19 -289,32 l -29,5 6,1381 c 4,867 11,1385 17,1391 28,28 433,-9 697,-64 371,-77 792,-265 1075,-481 43,-33 80,-59 83,-59 34,0 -228,267 -418,427 -180,151 -410,284 -667,386 -192,77 -396,121 -692,152 -176,18 -297,18 -397,0 z"
       id="path3" />
    <path
       d="m 8396,22743 c -7,-766 -1,-2741 10,-3180 6,-215 8,-233 24,-233 10,0 92,14 182,30 89,17 323,51 518,76 l 355,45 380,2 c 267,1 402,-2 455,-11 41,-6 136,-16 210,-22 195,-14 532,-85 784,-167 202,-65 362,-139 519,-240 72,-46 87,-29 87,-29 -17.755,-9.207 -261,269 -355,339 -169,126 -515,264 -820,327 -82,17 -255,44 -385,60 -222,28 -260,30 -621,31 -316,1 -403,-1 -494,-15 -60,-10 -176,-20 -257,-23 l -148,-6 v 1735 c 0,1978 -11,1774 93,1785 l 57,6 v 128 129 h -293 -294 z"
       id="path4"
       style="fill:#735bdc;fill-opacity:1"
       sodipodi:nodetypes="ccsccccccccscccccccsccccccc" />
    <path
       d="m 7715,22884 c -22,-2 -55,-7 -72,-10 l -33,-5 v -2085 c 0,-1875 2,-2085 16,-2091 8,-3 41,0 72,6 449,92 1028,190 1274,216 81,8 196,23 255,32 94,16 181,18 663,18 513,-1 569,-2 740,-23 522,-64 890,-159 1175,-306 66,-33 123,-62 127,-64 5,-2 8,7 8,20 0,32 -178,207 -280,275 -314,210 -701,317 -1325,369 -297,25 -609,29 -791,10 -83,-9 -200,-16 -260,-16 -100,0 -505,-38 -649,-60 -50,-8 -540,-70 -551,-70 -8,0 -3,3466 4,3477 4,7 37,16 72,20 l 64,8 9,40 c 10,46 5,220 -7,232 -8,8 -439,14 -511,7 z"
       id="path5" />
  </g>
</svg>
